<?xml version="1.0" encoding="UTF-8"?>
<svg id="Layer_1" data-name="Layer 1" xmlns="http://www.w3.org/2000/svg" viewBox="0 0 592.56 458.98">
  <defs>
    <style>
      .cls-1 {
        fill: #bb9644;
        stroke-width: 0px;
      }
    </style>
  </defs>
  <path class="cls-1" d="M158.13,8.21c1.02-.09,1.84-.17,2.66-.25,5.12.84,10.05,2.37,14.88,4.23.33,1,1.18.95,1.99,1,1.27,2.35,3.68,3.57,5.46,5.43,5.07,5.3,8.01,11.78,10.84,18.36,2.32,6.98,5.39,13.64,8.7,20.2.35.65.7,1.3,1.05,1.96l-.07-.05c1.08,4.57,3.33,8.67,5.26,12.9.34,2.32,1.33,4.36,2.75,6.21.44,3.16,2.39,5.76,3.3,8.74.96,2.83,1.72,5.75,3.72,8.1.7,3.59,2.61,6.71,4.01,10.03,5.45,12.95,10.89,25.89,16.33,38.84,3.01,7.43,5.77,14.97,9.08,22.27,4.18,9.22,7.49,18.81,12.1,27.84.84,2.1,1.55,4.26,2.53,6.3,2.81,5.84,4.36,12.24,7.96,17.72-.02-.01-.03-.02-.05-.04.35,2.69,1.71,4.95,3.04,7.23-.09.24-.06.47.09.67,1.58,4.85,3.53,9.55,5.98,14.04h0c2.16,6.92,4.87,13.62,7.96,20.18.8,4.2,2.69,7.98,4.24,11.66h10.46c3.34-8.54,6.57-16.97,9.93-25.36,6.66-16.64,13.38-33.26,20.1-49.88,12.39-30.64,24.9-61.23,37.1-91.95,2.17-5.47,5-10.72,6.28-16.53.24-.28.28-.58.11-.91l-.06-.02c2.2-.98,1.61-3.46,2.7-5.04.05-.36.09-.72.14-1.09.12-.27.19-.56.21-.86.56-.13.85-.48.79-1.09,1.02-1.05,1.1-2.47,1.45-3.78,2.56-6.09,5.2-12.14,7.64-18.28,1.43-3.59,3.56-6.94,4.08-10.87,1.4-.99,1.45-2.6,1.85-4.06.77-1.59,1.62-3.15,2.3-4.78,2.1-5.06,4.17-10.14,6.8-14.96.98-2.3,3.64-3.49,4.08-6.14,2.46-.63,3.83-2.83,5.85-4.1h.02c4.64-2.5,9.63-3.93,14.81-4.35V.35h-76.15c.15,1.12.27,1.94.38,2.76,0,.34,0,.67,0,1.01-.16,1.26-.36,2.53.45,4.23h8.63c.62.34,1.15,1,1.99.55l7.74,1.32c3.12,2.14,6.05,4.47,7.85,7.93.77,2.98-.02,5.92-.25,8.87-1.15,4.36-2.9,8.56-3.38,13.09-3.93,11.01-7.45,22.16-11.91,32.97-.24.58-.19,1.28-.27,1.92-1.36.6-.83,1.98-1.18,2.99-1.43,2.31-2.46,4.78-2.77,7.51-1.01.56-.96,1.57-1.07,2.52-1.86,1.97-2.25,4.57-3.01,7.01-1.3,2.19-2.06,4.6-2.77,7.03-.14.27-.2.56-.19.87-.46.23-.88.49-.73,1.12-.1.64-.19,1.29-.29,1.93-1.16.69-1.18,1.8-1.06,2.96h-.03c-2.24,2.58-2.94,5.83-3.9,8.97-5.04,11.55-9.74,23.22-13.85,35.13-1.57,3.98-3.14,7.95-4.71,11.93-.05.36-.1.71-.16,1.07-1.81,2.6-2.46,5.71-3.6,8.59-2.65,6.71-5.9,13.2-7.66,20.24-2.14,2.57-2.53,5.93-3.97,8.81-1.4,2.8-1.84,6.08-4.04,8.52-.79-.57-1.31-.95-1.84-1.33-1.07-2.88-1.96-5.85-3.27-8.62-.72-1.51-.84-3.53-2.72-4.36l.08-.05c.04-1.95-.36-3.72-2.04-4.96-.04-2.74-.97-5.1-3.01-6.99h.05c.53-2.81-1.22-5.06-2.32-7.25-1.61-3.23-1.81-7.17-4.74-9.73.01,0,.03,0,.04,0-.05-.66.06-1.38-.18-1.96-4.01-9.64-8.07-19.26-12.12-28.88-1.13-3.88-2.84-7.51-4.77-11.05-.18-.63-.3-1.28-.55-1.87-3.23-7.68-6.48-15.35-9.73-23.03-1.01-1.98-.96-4.44-2.78-6.05.01-.88.04-1.77-.96-2.22-.88-4.17-2.71-7.97-4.61-11.74-.84-2.43-1.47-4.95-2.55-7.26-2.43-5.21-3.72-10.9-6.83-15.81.01,0,.03,0,.04,0-.62-3.7-2.25-7.02-4.01-10.28-1.99-6.6-3.98-13.19-5.97-19.79-.06-2.96-.11-5.91-.17-8.87.15-.23.17-.48.09-.75,1.51-3.23,3.77-5.87,6.47-8.16-.24.01-.5,0-.77-.01.26.02.53.03.77.01,3.49-1.01,6.99-2.02,10.48-3.04h6.8V.07c-5.85,0-11.7,0-17.56,0-21.41-.02-42.81.1-64.22.22-5.93-.47-11.85-.24-18.2-.15.4,2.9-.48,5.46.55,8.07ZM235.68,113.94s.14.14.14.14l-.14-.14h0Z"/>
  <path class="cls-1" d="M335.07,349.49c-.15-1.53-.31-3.06-.46-4.59-1.66-11.05-6.95-20.02-15.58-27.07-.53-.98-1.37-1.56-2.4-1.89-3.6-3.63-8.2-5.36-12.95-6.81-2.34-.33-4.46-1.83-6.96-1.29-.26-.15-.54-.2-.83-.16-3.63-1.45-7.43-.64-11.16-.87-4.08-.57-8.09-.37-11.99,1.03-.33-.07-.66-.04-.97.1-4.62-.02-8.59,2.22-12.54,4.05-6.64,3.09-12.4,7.49-16.26,13.95-3.16,3.85-5.45,8.17-7.03,12.89-.34,1.02-.67,2.04-1.01,3.06-.52,2.98-1.53,5.89-1.17,8.98-.79.72-.9,1.63-.96,2.67-.27,5.11.53,10.09,1.59,15.06.47,2.21.82,4.45,2.3,6.28.6,2.21.99,4.51,2.95,6.05.66,2.46,1.78,4.61,4.03,5.99-.02,0-.04,0-.06,0-.05.36.07.66.35.89,1.56,2.35,3.32,4.51,5.83,5.94l.38.27.47-.04v-.04c.66,1.4,1.91,2.12,3.14,2.94,9.09,6,19.22,8.36,29.96,8.61,2.38.24,4.78.78,7.02-.57,1.31-.08,2.62-.15,3.93-.23,3.47-.3,6.68-1.55,9.91-2.74,17.01-6.24,26.88-18.38,29.95-36.15.27-3.31,1.52-6.52,1.07-9.91.05-2.15.54-4.34-.57-6.39ZM279.47,400.33c-.44-.28-.62-.38-.86-.32.25-.06.43.04.87.32,0,0,0,0,0,0ZM318.5,356.67c-.89,1.8-.56,3.73-.65,5.64-.13,2.87-.02,5.77-.97,8.55-.08,1.29-.17,2.58-.25,3.88-.81-.07-.88.5-.93,1.1-.86.44-.97,1.19-.85,2.03-.15.26-.21.55-.16.85-2.9,4.68-6.24,9.03-10.06,13.01-5.91,4.07-12.14,6.88-19.62,6.66-9.86-.29-17.59-4.6-24.05-11.66-.66-.72-1.17-1.57-2.08-2.02,0,.02,0,.04-.01.06-.15-.51-.22-1.09-.94-1.05.06-1.7-.81-2.91-2.07-3.92-.96-3.02-2.72-5.75-3.25-8.93l-.98-5.02c-1.03-2.91-.71-5.97-.98-8.96,0-1.02-.02-2.04-.03-3.06.09-2.26.19-4.52.28-6.77,1.02-1.26.99-2.71.73-4.19,1.42-4.62,2.85-9.24,4.27-13.86.69-.02.86-.55,1.04-1.08,4.03-4.91,8.05-9.74,14.24-12.24,2.85-1.15,6.02-1.12,8.68-2.73.95,0,1.9-.01,2.84-.02.62.65,1.46.8,2.28.8,14.96-.01,28.78,14.41,31.78,29.19.92,4.54.29,9.23,1.84,13.65l-.09.1Z"/>
  <path class="cls-1" d="M536.91,380.71c-1.49-.53-2.53-1.01-3.96-.43-.32,1.11-.91,2.33-1.01,3.59-.47,5.87-4.22,8.52-9.37,9.94-4.86,1.35-9.85.88-14.8,1.13h0c-4.29-.06-8.57-.12-12.86-.18h0c-1.9-.78-3.56-1.81-4.19-3.93-.01-3.32-.03-6.63-.04-9.95,0-.35.01-.71.02-1.06,0-5.64-.02-11.28-.02-16.93.45-1.21-.23-2.64,1.05-4.22,5.74,0,11.8,0,17.87,0,1.82,0,3.57.36,5.23,1.12,2.99,2.31,3.55,5.71,3.81,9.26h4.05v-27.82c-1.29-.68-2.38-1.45-3.71-.74-.24,1.05-.55,1.99-.66,2.96-.4,3.65-2.42,5.62-6.03,6.05-.82.1-1.63.33-2.44.5-2.35-.39-4.68-.04-7.01.26-3.65-.03-7.3-.05-10.96-.08-.17-.3-.43-.43-.78-.39-.12-1.31-.24-2.63-.36-3.94,0-1.67,0-3.34,0-5.01l-.03-5.96c.31-3.69.29-7.37,0-11.06.08-2.64.16-5.29.24-7.93.3.01.6-.03.89-.13h0c1.65,0,3.31,0,4.96.01,1.35,0,2.7-.01,4.05-.02,4.68.03,9.36.07,14.04.1.82.91,1.84,1.03,2.96.75,2.67.36,4.69,2.05,6.9,3.34,2.21,3.12,3.11,6.68,3.32,10.49,1.47-.25,2.7-.38,3.48-.97v-12.55c.15-2.05.53-4.13-.73-6.01-.11-.93.47-1.96-.48-2.9h-40.46c-5.37-.37-10.73-.3-16.1-.07-2.28-1.28-4.78-.03-7.14-.63-.9-.23-1.47.48-1.56,1.43-.08.89.16,1.65,1.01,2.01,1.5.63,3.03,1.19,4.68,1.25,2.27,1.5,4.24,3.2,4.21,6.26,0,.67.28,1.22.79,1.65.06,2.31.11,4.61.17,6.92-.26,12.36-.39,24.72.04,37.07h0c-.09,9.93-.17,19.86-.26,29.79-1.66,5.29-6.01,6.22-10.64,6.25-.42,1.45-.47,2.53.36,3.86,10.37-.09,20.88.32,31.39-.27.66,0,1.31-.01,1.97-.02,1.68.03,3.37.06,5.05.1.66.24,1.3.23,1.94-.07.68-.02,1.36-.04,2.04-.06.98.03,1.95.06,2.93.09h24.01c.84-7.69,2.12-15.27,2.15-22.88Z"/>
  <path class="cls-1" d="M198.93,399.8c-6.36-.19-8.83-2.29-10.32-8.33-.64-2.61-.83-5.21-.83-7.87,0-22.57-.01-45.14-.03-67.72,3.45.02,6.9.16,10.35.02,3-.13,5.91.26,8.73,1.11,5.46,1.66,9.64,4.77,11.51,10.48.35,1.07-.03,2.35,1.12,3.4h2.24c2.21-1.3.67-3.32.96-4.99.21-6.28.32-12.55-.18-19.3-1.04.7-1.42.96-1.81,1.21h0c-.32-.04-.64,0-.94.12-15.23.04-30.47-.03-45.69.2-4.09.06-8.29-.61-12.31.82-.67-.02-1.34-.05-2.02-.07-.31-.53-.65-.55-1.01-.05h0c-.33,0-.66.02-1,.03-.32.02-.65.05-.97.07-.33-.01-.67-.02-1-.03-4.61-1.21-9.32-.92-14.01-.91-1,.08-2.42-1.15-2.81.88,0,.36,0,.72.01,1.09-.04,1.97-.07,3.94-.11,5.92,0,.35.01.69.02,1.04h0c-.64,4.71-.89,9.45-.77,14.42,1.92.18,3.56.27,3.69-2.12.08-1.52,1.43-2.68,1.08-4.28,0,0-.02,0-.02,0,2.77-4.45,6.57-7.42,11.89-8.18-.02-.33-.04-.65-.06-.98.02.33.04.65.06.98.38-.14.76-.27,1.14-.41h0c4.27-.86,8.6-.24,12.89-.62,1.34.39,2.96-.5,4.14.97v6.24c.02,18.3.03,36.6.05,54.9-.24,2.34-.37,4.68.19,7,.02.67.04,1.34.05,2.01-.06.67-.13,1.35-.19,2.02-1.34,8.17-3,9.9-10.82,10.92-2.78.36-2.46,1.89-2.07,3.82h40.36c.38-1.37.64-2.45-.17-3.6-.42-.06-.89-.17-1.35-.18Z"/>
  <path class="cls-1" d="M438.59,329.81c.29-5.59.65-11.15,4.27-15.84,1.06-.59,2.39-.79,3.04-2,0,.02.01.03.01.05,1.89-.34,3.93-.07,6.02-1.34-.76-1.01.41-2.2-.74-3.24-10.59.36-21.24.65-31.83.26-.62,1.93-.42,3.63,1.37,3.79,3.44.31,5.5,2.65,7.95,4.49.18.73-.11,1.71.96,1.99.12,1.28.25,2.56.37,3.83-.16,2.08-.56,4.2.77,6.09.07-.22.08-.45.08-.69,0,.24,0,.47-.08.69.01,1.32.03,2.64.04,3.96,0,.33-.01.66-.02.99-.04,1.48-.1,2.97-.1,4.45-.03,13.5-.05,27.01-.08,40.51-3.96-3.06-6.1-7.76-9.89-10.97-.1-1.2-1.18-1.61-1.88-2.33-.57-1.58-1.7-2.73-2.95-3.79-.46-.87-.95-1.72-2.01-1.97-.24-1.9-1.5-3.04-3.01-4-.64-2.28-2.47-3.66-4.03-5.24-.63-.92-.98-2.06-2.03-2.67-.65-1.41-1.83-2.33-2.99-3.28-3.35-5.39-7.77-9.94-11.81-14.78-.69-1.6-1.56-3.06-3.06-4.05-.94-1.4-1.71-2.92-3.12-3.95-.67-.77-1.33-1.55-2-2.32-.77-2.58-3.03-4.2-4.24-6.47-1.96-3.67-4.82-5.06-8.85-4.02-3.66,0-7.32-.01-10.98-.02-.34,0-.67,0-1.01,0h-9.76c-.16.96-.49,2.06.65,3.27,1.51.23,3.26.5,5.02.77.24,1.13,1.37.81,2.05,1.22,4.67,4.24,6.27,9.56,6.59,15.8.23,4.62-.02,9.27.58,13.88-.19,3.79-.49,7.58-.56,11.38-.22,11.33-.37,22.65-.52,33.98-.04,2.99-.79,5.79-2.14,8.44h0c-.65.57-1.31,1.15-1.96,1.72h0c-2.52.62-4.96,1.61-7.86,1.36.19,1.59-1.08,3.08.93,3.96,5.36-.03,10.71-.06,16.07-.09,4.89.35,9.78.21,14.59.01.42-1.4.49-2.48-.1-3.73-2.1-.4-4.28-.81-6.47-1.22-.28-1.06-.99-1.34-2.01-1.06l.11-.03c-1.4-3.72-2.61-7.47-2.66-11.51,0-.42-.41-.84-.62-1.27.26-1.36.3-2.72-.01-4.08,0-12.64.02-25.28.02-37.92h0c0-.33,0-.67,0-1,.13-.33.11-.66-.05-.97v-12.8c2.26,2.58,4.06,4.46,5.67,6.49,5.4,6.83,10.62,13.8,16.47,20.25.61,1.44,1.78,2.4,2.92,3.38.03.79.55,1.22,1.13,1.63,1.94,3.05,4.19,5.86,6.85,8.31,1.33,2.5,3.2,4.6,5.08,6.68-.02.59.29.92.85,1.03,1.23,1.63,2.26,3.44,4.09,4.53,2.63,4.64,6.11,8.62,9.74,12.48.55.88.9,1.97,2.18,2.06,1.11,3.16,3.3,5.56,5.57,7.91.6.62,1.23,1.1,2.14,1.02,2.4-.21,4.87.4,7.2-.41v-11.6c-.01-.68-.03-1.36-.04-2.04.27-.96.38-1.92.07-2.89-.02-1.04-.03-2.08-.05-3.11.19-.31.21-.63.05-.96.23-2.35.32-4.69,0-7.04.06-1.97.41-3.94-.03-5.91.44-13.37.35-26.73.04-40.1Z"/>
  <path class="cls-1" d="M9.24,442.95c-2.16,0-4.32.08-6.48.03-1.87-.04-2.76.75-2.72,2.66.02.99-.29,2,.62,2.68h43.75c.64-1.85.47-3.45.1-5.38-12.03,0-23.65,0-35.27,0Z"/>
  <path class="cls-1" d="M592.19,443.17h-42.69c-.28,1.78-.45,3.23.38,5.22h41.71c1.46-1.76.94-3.47.6-5.22Z"/>
  <path class="cls-1" d="M409.9,437.18c-4.07-1.01-8.4-.69-12.67-.03v21.61c2.98,0,5.46-.01,7.93,0,2.73.02,5.3-.67,7.52-2.19,3.51-2.41,5.42-5.74,4.96-10.14-.51-4.8-3.26-8.13-7.73-9.25ZM413.16,450.94c-2.47,5.1-7.41,3.78-12.22,3.97v-14.71c4.24-.73,8.34-.78,11.57,2.86,2.14,2.41,1.84,5.4.65,7.87Z"/>
  <path class="cls-1" d="M371.7,452.83c.73-.96,1.6-1.96,2.31-3.06,1.32-2.05,1.25-2.13-1.88-3.1-.86,1.52-1.43,3.29-3.31,4.07-1.3-1.21-2.51-2.32-3.93-3.64,4.54-3.93,5.57-6.36,3.86-8.79-1.39-1.97-5.63-2.77-8.11-1.57-1.25.61-2.28,1.52-2.72,2.77-.82,2.32.3,4.43,1.28,6.35-4.45,4.27-5.46,7.57-3.35,10.43,2.58,3.51,7.96,3.36,13.43-.41,1.75,1.63,3.27,3.97,6.39,2.56-1.03-2.03-3.57-3.01-3.97-5.62ZM362.06,439.27c1.34-.77,2.73-.66,3.43.71,1.29,2.53-1.08,3.36-2.72,4.99-2.35-3.69-2.45-4.7-.72-5.69ZM359.24,454.7c-.68-.86-.58-1.85-.51-2.85.13-1.7,1.03-2.71,2.99-3.08,1.63,1.55,3.35,3.19,5.13,4.87-3.63,2.45-6.26,2.77-7.6,1.06Z"/>
  <path class="cls-1" d="M529.05,436.62c-6.46-.24-10.81,4-11.34,10.35-.56,6.6,5.27,11.64,10.76,11.78,5.49.14,11.96-3.62,12.3-10.86.3-6.28-4.58-11.01-11.72-11.28ZM529.41,455.48c-4.69.05-8.45-3.74-8.23-8.61.14-3.09,4.17-7.33,7.61-7.17,4.56.21,7.98,3.18,8.01,7.56.03,4.75-3.05,8.18-7.39,8.22Z"/>
  <path class="cls-1" d="M121.91,436.38c-7.85.19-12.16,5.71-11.93,11.29.26,6.14,3.88,10.54,11.05,10.99,6.47.41,12.11-4.48,12.06-10.48-.05-6.3-3.03-11.27-11.19-11.8ZM122.13,455.53c-4.62.05-8.44-3.54-8.35-7.85.09-4.81,3.36-7.95,8.19-7.86,4.23.08,7.68,3.61,7.73,7.91.04,3.58-4.02,7.76-7.57,7.79Z"/>
  <path class="cls-1" d="M505.7,437.09v13.59c-.48-.14-.96-.27-1.44-.41-3.46-4.21-6.91-8.43-10.39-12.63-.78-.94-1.79-1.34-3.3-.87v21.67c1.22.55,2.44.74,3.54-.23-.21-4.81.52-9.54-.38-15.13,2.82,3.36,5.11,5.96,7.24,8.68,4.52,5.76,5.05,6.28,7.84,6.7,0-6.65-.02-13.26,0-19.88.01-2.66-1.48-1.79-3.12-1.48Z"/>
  <path class="cls-1" d="M116.76,393.83c2.01-1.94,3.03-4.41,3.78-7.02.08-.66.16-1.32.24-1.97,1.04-.81.96-1.92.84-3.04.05-1.99.12-3.98.15-5.98.07-4.77-1.19-9.11-4.13-12.92.08-.6-.25-.9-.77-1.07-.12-.59-.43-.98-1.05-1.05-.06-.64-.52-.95-1.02-1.23-5.32-5.21-11.83-8.35-18.77-10.75-2.52-1.81-5.33-3.05-8.24-4.05,0,0,0,.01.01.02-4.15-3.13-8.39-6.17-11.98-9.98.02,0,.03,0,.05.01.09-1.48-.98-2.57-1.27-3.92-.32-1.71.27-3.55-.75-5.16.15-.59.3-1.18.44-1.77,1.69-4.88,4.55-8.51,9.69-10.3,2.29-.8,4.58-.31,6.79-.95,2.68,0,5.25.7,7.83,1.29,1.28,1.06,2.67,1.96,4.23,2.56.2.28.48.42.82.45.37.86.95,1.34,1.95,1.06,1.2,3.24,3.51,5.86,4.99,8.94,0-.01.01-.02.02-.04.1,1.59-.15,3.23.63,4.77,1.7.18,3.29.38,4.83-.21v-23.45c-2.47.25-3.7,1.9-5.26,3.02-1.37-.36-2.74-.72-4.11-1.09-9.39-4.28-19.04-4.5-28.87-1.83-.55-.07-.83.31-1.1.69-2.7.84-5.36,1.76-7.3,3.98-1.68.71-3.26,1.53-3.77,3.5-1.46,1.22-2.62,2.63-3.03,4.54-.89.44-.94,1.2-.79,2.04-1.65,5.93-2.23,11.81.81,17.53.24,3.03,1.79,5.39,3.87,7.47.75,1.33,1.9,2.24,3.22,2.96.32.76.95,1.03,1.73,1.05.23.55.59.95,1.22,1.04,0,0,0,0,0,0,2.95,2.54,6.41,4.18,9.98,5.63.33.13.67.26,1,.39,5.85,3.38,12.35,5.5,18,9.27,1.32,1.57,2.65,3.14,3.97,4.71,1.1,2.17,1.96,4.41,2.24,6.85,0,.37.01.75.02,1.12-.02.96-.05,1.92-.07,2.89,0,.34-.01.69-.02,1.03-.03.67-.07,1.34-.1,2-.68.5-.81,1.21-.76,1.99-.44.97-.88,1.95-1.32,2.92-.77.42-1.31.96-1.04,1.93-1.53-.11-2.22.98-2.93,2.05,0,0,0,0,0-.01-4.39,2.59-9.11,3.38-14.21,3.24-3.74-.1-7.01-1.69-10.56-2.3l-.06.07c-.59-1.3-1.55-2.05-3.02-2.01-.02-.66-.5-.93-1.04-1.14-2.28-2.6-4.55-5.2-6.83-7.8-.42-3.07-2.41-5.62-2.56-8.89-1.6,0-5.25-.75-4.46,1.95-.37,4.38-.03,8.72.87,13.01-.07,3.89-.27,7.8.13,12.08,1.29-.7,1.99-1.08,2.68-1.46,1.55-.3,2.52-1.89,4.21-1.89.62.11,1.24.22,1.86.34.18.25.32.58.56.67,11.68,4.61,23.46,5.64,35.45,1.15,4.89-1.83,9.08-4.55,12.07-8.92ZM97.39,361.33c.08-.04.16-.11.23-.27-.1-.27-.21-.55-.31-.82.11.27.21.55.32.82-.07.16-.15.23-.23.27ZM82.71,402.77s0,0,0,0c.25-.14.51-.27.76-.41-.25.14-.5.28-.76.41ZM92.51,403.33c-.54-.33-.7-.41-1.06-.27.36-.14.52-.06,1.06.27,0,0,0,0,0,0Z"/>
  <path class="cls-1" d="M275.08,437.04c-3.99-.64-8.1-.6-12.13.06v13.64c-.06,2.12-.18,4.23-.15,6.35.02,1.17.79,1.71,1.98,1.54,1.31,0,2.62-.02,3.94-.03,2.06.21,4.15.69,5.96-.85,5.68-1.47,8.65-5.05,8.57-10.33-.08-5.13-3.29-9.58-8.17-10.37ZM271.78,454.96c-.35.03-.69.06-1.04.08-.64.01-1.29.03-1.93.04-.79-.38-1.98-.08-2.24-1.34v-13.25c6.85-1.9,12.07.4,13.11,6.17.73,4.07-2.42,7.31-7.9,8.29Z"/>
  <path class="cls-1" d="M453.95,447.44c-1.54-.95-3.33-1.34-5.06-1.87-1.91-.59-4.32-.82-4.86-3.44,2.56-2.97,4.49-3.48,8.11-1.21,1.84,1.15,2.62.77,3.8-.97-2.56-3.44-5.79-3.84-9.41-3.2-3.69.65-5.5,2.18-5.75,5.06-.27,3.13.91,4.77,4.53,6.09,1.84.67,3.74,1.19,5.6,1.82,1.44.49,2.17,1.55,1.99,3.05-.2,1.63-1.45,2.03-2.86,2.24-3.37.5-6.18-.51-8.08-3.19-1.37.64-2.01,1.34-2.23,2.39,4.45,4.98,9.87,5.96,14.47,2.63,3.61-2.62,3.53-7.04-.26-9.4Z"/>
  <path class="cls-1" d="M243.59,436.66c-1.5.07-2.01.92-2.5,1.95-3.09,6.59-6.15,13.2-9.26,19.89,3.63.18,3.89.27,4.7-2.13.65-1.93,1.55-2.65,3.53-2.57,3.13.12,6.28.03,9.19.03,2.08,1.92,1.75,6.75,6.44,4.47-3.07-6.5-6.15-13.01-9.23-19.51-.57-1.21-1.12-2.22-2.88-2.13ZM239.65,450.33c.52-3.47,2.9-6.1,3.79-10.46,1.89,4.09,3.35,7.23,5.03,10.86-2.89,0-6.04.38-8.82-.41Z"/>
  <path class="cls-1" d="M98.09,449.34c3.19-2.15,4.35-4.52,3.58-7.37-.83-3.09-3.47-5.13-6.96-5.26-1.32-.05-2.65.1-3.97.16-1.34-.01-2.68-.02-4.03-.04.17.19.33.36.5.5-.17-.14-.33-.31-.5-.5-.3-.13-.61-.14-.92-.03-.8-.11-1.14.25-1.04,1.03-.13.31-.13.62.01.93,0,1.02,0,2.04,0,3.05-.14.31-.14.62,0,.93v15.84c1.77.28,3.29.67,2.93-1.83.49-1.89-.48-3.96.57-5.67,3.51-1.29,5.79-.06,7.23,3.13.4.88,1.14,1.62,1.51,2.51.97,2.37,2.58,2.67,5.02,1.52-1.67-2.76-3.32-5.48-4.96-8.2.5-.35.76-.55,1.03-.73ZM95.32,446.71c-2.32.48-4.88.16-7.23.16-.33-2.19-.3-4.33-.3-6.55,2.15-.93,5-.8,7.25-.25,1.77.43,2.72,2.03,2.68,3.78-.03,1.58-.86,2.55-2.4,2.86Z"/>
  <path class="cls-1" d="M222.2,438.68c-2.78-2.15-6.08-2.26-9.42-1.84-2.01.44-4.37-1.36-6.1.93-.76.69-.67,1.37.03,2.04.02.33.04.66.06.99,0,1,0,1.99,0,2.99,0,1,0,2,0,3-.95,1.66.16,3.31,0,4.97-.01.66-.02,1.31-.03,1.97-.58.36-.58.71,0,1.06,0,.34,0,.68,0,1.02h0c-.05.93-.62,1.86.15,2.97,3.99.02,8.12.42,12.11-.96,4.2-1.46,6.95-4.36,7.68-8.78.71-4.31-1.09-7.78-4.45-10.37ZM216.33,454.66c-2.09.26-4.24.07-6.37.09-.09-1.65-.18-3.31-.28-4.96,0-.33,0-.66,0-1,.11-2.98.22-5.97.34-8.95,2.21.03,4.42.07,6.63.1.16-.12.3-.22.45-.3-.14.08-.29.18-.45.3.69,1.22,2.08.68,3.05,1.2.79,1.57,2.63,2.28,3.02,4.29.85,4.44-1.87,8.68-6.39,9.23Z"/>
  <path class="cls-1" d="M141.92,436.78v21.58c1.24.68,2.31.61,3.94-.1v-7.55c3.34,0,6.9.5,9.78-1.57,2.12-1.53,3.31-4.11,2.76-6.72-1.56-7.29-11.07-5.64-16.48-5.64ZM146.13,447.51c-1-2.47-.29-4.85-.47-7.17,2.98-1.23,8.74-1.06,9.12,3.15.44,4.8-5.67,4.03-8.65,4.03Z"/>
  <path class="cls-1" d="M480.71,439.43c.09-1.2.51-2.19-.39-2.99-.82.1-1.64.19-2.46.29-2.03-.76-4.07-.73-6.09.03-.33-.08-.65-.06-.96.08-1.67.02-3.34.04-5.01.06-.51.13-.96.4-.93.95.27,6.64-.38,13.29.35,19.92-.23,1.6.94.83,1.59.93.34,0,.68,0,1.02,0,3.7.04,7.4.1,11.1.12.76,0,1.66.13,1.78-1.02.19-1.26.54-2.81-1.41-2.72-1.49.08-3.16-.81-4.51.52-.6,0-1.21.01-1.81.02-.99-1.3-2.94.21-3.98-1.46.04-1.73-.66-3.67.76-5.37-.02-.16-.03-.31-.03-.43,0,.12,0,.26.03.43,2.43.04,4.89-.14,7.28.18,2.56.34,2.62-1.03,2.48-3.44h-10.67c.25-1.89-.39-3.91.59-5.66,3.89-.32,7.66.45,11.29-.44Z"/>
  <path class="cls-1" d="M69.27,436.79c-3.1-.17-6.21-.04-9.47-.04v21.52c1.08.65,1.95.86,3.03-.34v-7.06c.3-.08.59-.16.88-.26,1.02.23,2.02.21,3.02-.1.33-.03.66-.06.99-.09.53.2.95.11,1.16-.48,0,0,0,.03,0,.03,0,0,.43.07.43.07l.42-.14c4.49-.92,6.27-2.96,6.03-6.88-.2-3.27-2.92-6.03-6.49-6.23ZM69,447.36c-1.76.36-3.61.26-5.55.38-1.26-2.42-.41-4.89-.74-7.9,2.23,0,3.87.07,5.5-.02,2.49-.13,3.6,1.48,4.28,3.42.48,1.37-1.42,3.7-3.5,4.12Z"/>
  <path class="cls-1" d="M427.09,437.15v21.49c1.28.12,2.25.38,3.47-.21v-21.33c-1.3-.54-2.36-.59-3.47.05Z"/>
  <path class="cls-1" d="M167.12,437.21v8.57c-.47,3.04-.44,6.07.04,9.11-.28.65-.3,1.29.12,1.89-.08.34-.15.68-.23,1.02.87,2.22,2.26.62,3.38.74v-21.65c-1.52-.65-2.52-.32-3.32.32Z"/>
  <path class="cls-1" d="M331.91,448.69c-.89-1.7-2.68-1.76-4.21-2.29-1.55-.54-3.15-.95-4.7-1.5-1.33-.47-2.33-1.27-2.2-2.9.14-1.78,1.58-2.05,2.86-2.17,1.98-.18,4.04-.22,5.69,1.22,1.8,1.58,2.41,0,3.44-.91-2.97-3.55-6.48-4.29-10.51-3.44-3.07.65-4.97,2.5-5.18,5.16-.18,2.28,1.39,4.82,3.93,5.78,2.45.93,5.02,1.54,7.54,2.28l.08-.08c.16.29.32.58.48.86.43,3.13.19,3.7-2.12,4.04-1.4.2-2.85.1-4.28.13-1.92-.36-3.02-1.92-4.44-3.04-.82.76-2.02,1.14-2.26,2.49,1.5,1.81,3.41,2.99,5.73,3.51,2.33,1.36,4.65,1.48,6.95-.08,1.27.01,2.38-.17,2.2-1.86,3.48-1.98,3.67-3.45.93-7.21.02,0,.05,0,.07-.02Z"/>
  <path class="cls-1" d="M499.02,430.77q-3.63-.15-5.15,3.94c3.06.27,3.57-2.17,5.15-3.94Z"/>
  <path class="cls-1" d="M504.5,430.77c-2.92-.61-3.81,1.74-5.21,3.58,3.69,1.86,3.83-1.8,5.21-3.58Z"/>
  <path class="cls-1" d="M195.82,455.71c-.37-.68-.74-.54-1.12,0-.65.02-1.3.04-1.96.06-.32-.13-.65-.13-.97,0-1.33,0-2.65-.02-3.98-.03h0c-.37-.61-.75-.63-1.14-.01-.62-.06-1.24-.12-1.86-.18,0,0,0,0,0,0-.09-.94-.19-1.87-.28-2.81.15-.32.13-.64-.06-.94.02-.69.05-1.37.07-2.06h0c2.81-.9,5.75-.32,8.61-.75,2.33-.35,2.36-.19,1.44-3.23h-9.75c.01-1.93-.35-3.89.39-6.08h9.56l.48.08.48-.1c.69.07,1.06-.12.73-.89.17-1.01.37-2.02-1.2-2.01-4.74,0-9.49,0-14.2,0v21.94h14.72c1.66-.98,1.57-1.97.04-2.99Z"/>
  <path class="cls-1" d="M306.82,455.77l-.03-.03c-.31-.99-.69-.89-1.11-.07h-.02c-.29-.03-.57,0-.85.07-.25-.17-.53-.21-.82-.13-.49-.56-.97-.57-1.43.03-.28-.09-.55-.07-.81.05-.33.04-.66.07-.99.11-.61-.05-1.22-.11-1.82-.16-1.17-1.11-2.86-.16-4.1-1.02.01-.94.03-1.88.04-2.81.72-1.24,1.2-2.54,3.21-2.31,2.4.28,4.86.07,7.09.07.85-1.45.88-2.5.05-3.62-3.23-.82-6.79.75-10-.87-.44-1.85.27-3.35.52-4.98,1.1-.14,2.07-.26,3.04-.38,2.29.01,4.59.03,6.88.04,2.16.01,1.62-1.38,1.57-2.94h-7.47c-.33-.14-.65-.14-.97,0-1.34,0-2.68,0-4.02,0-.33-.65-.66-.64-.98.01-1.84-.51-2.39.29-2.03,2h0c-.13.1-.38.23-.36.29.07.23.22.43.34.65.01.68.03,1.36.04,2.04-.13.1-.39.24-.37.29.07.24.22.45.35.67h0c-.12,5.2-.8,10.39-.2,15.84,5.16.18,10.18.5,15.22-.08,1.38-.89,1.22-1.82.06-2.76Z"/>
</svg>