<?xml version="1.0" encoding="utf-8"?>
<!-- Generator: Adobe Illustrator 28.1.0, SVG Export Plug-In . SVG Version: 6.00 Build 0)  -->
<svg version="1.1" id="Layer_1" xmlns="http://www.w3.org/2000/svg" xmlns:xlink="http://www.w3.org/1999/xlink" x="0px" y="0px"
	 viewBox="0 0 484.7 507.4" style="enable-background:new 0 0 484.7 507.4;" xml:space="preserve">
<g>
	<path d="M242.8,507.4c-1.8-0.3-2.7-1.5-3.8-2.6c-28.2-29.3-56.3-58.6-84.5-87.9c-22.3-23.2-44.5-46.4-66.9-69.5
		C59.4,318,31,288.7,2.5,259.4c-3.3-3.4-3.3-5.5,0-8.9c31.8-33,63.5-66,95.1-99.2c46.4-48.6,92.6-97.2,139-145.8
		c6.8-7.1,5.5-7.8,13.1,0.2c42.8,44.8,85.6,89.7,128.3,134.6c34.4,36.2,68.7,72.6,103,108.9c5,5.3,5,5.4,0,10.6
		c-25.4,26.5-50.8,52.9-76.1,79.3c-51.7,54-103.5,108.1-155.2,162.1C247.5,503.6,245.9,506.4,242.8,507.4z M244.4,398.3
		c1.8-1.7,2.9-2.6,3.9-3.6c43-44.9,85.8-89.8,128.9-134.6c3.6-3.7,3.8-5.8,0.3-9.5c-41-42.4-81.9-84.9-122.8-127.3
		c-3.2-3.3-6.3-6.6-9.8-10.2c-0.3,1.2-0.5,1.6-0.5,2.1c0,18.7,0,37.3,0.1,56c0,5,1.7,9.4,5.3,13c4.1,4.2,8,8.5,12,12.7
		c17.3,18.1,34.5,36.2,51.9,54.1c3.4,3.5,3.5,5.8-0.1,9.3c-10.8,10.8-21.2,22-31.8,33c-10.9,11.4-21.9,22.8-32.8,34.3
		c-2.3,2.4-4.6,5.1-4.6,8.7C244.4,356.6,244.4,376.9,244.4,398.3z M176.6,329.6c1.9-0.1,2.9-1.5,4-2.7
		c21.5-22.3,42.9-44.7,64.5-66.9c3.1-3.1,3.2-5.1-0.1-8.5c-22.2-23-44.3-46.1-66.3-69.3c-1.9-2.1-2.7-1.9-4.5,0
		c-8.4,9-17,17.8-25.6,26.7c-13.4,13.9-26.8,27.8-40.2,41.7c-2,2.1-4.7,4-1.4,7.5c22.1,23.1,44.2,46.2,66.3,69.3
		C174.3,328.4,175.1,329.5,176.6,329.6z"/>
</g>
</svg>
